<svg width="12" height="6" viewBox="0 0 12 6" fill="none" xmlns="http://www.w3.org/2000/svg">
<path fill-rule="evenodd" clip-rule="evenodd" d="M0.175506 0.199919C-0.0584946 0.420828 -0.0584946 0.778101 0.175506 0.998465L5.1339 5.66919C5.2432 5.77375 5.37475 5.857 5.52055 5.91388C5.66634 5.97077 5.82335 6.00011 5.982 6.00011C6.14066 6.00011 6.29767 5.97077 6.44346 5.91388C6.58926 5.857 6.72081 5.77375 6.83011 5.66919L11.8251 0.964647C11.9367 0.857876 11.9995 0.716482 12.0006 0.56918C12.0017 0.421878 11.9411 0.279713 11.8311 0.171556C11.7768 0.117977 11.7109 0.0751068 11.6376 0.0456001C11.5644 0.0160933 11.4852 0.000578307 11.405 1.58359e-05C11.3249 -0.000546636 11.2455 0.0138554 11.1717 0.0423301C11.0979 0.0708048 11.0313 0.112746 10.9761 0.165556L6.4059 4.47137C6.35125 4.52369 6.28546 4.56536 6.21253 4.59382C6.13961 4.62229 6.06107 4.63698 5.9817 4.63698C5.90234 4.63698 5.8238 4.62229 5.75088 4.59382C5.67795 4.56536 5.61216 4.52369 5.5575 4.47137L1.0233 0.199919C0.968705 0.147616 0.902965 0.105964 0.830088 0.0775007C0.757211 0.0490375 0.678724 0.0343589 0.599406 0.0343589C0.520088 0.0343589 0.4416 0.0490375 0.368723 0.0775007C0.295846 0.105964 0.230105 0.147616 0.175506 0.199919Z" fill="#9A9A9A"/>
</svg>
