<svg width="23" height="14" viewBox="0 0 23 14" fill="none" xmlns="http://www.w3.org/2000/svg">
<path fill-rule="evenodd" clip-rule="evenodd" d="M0 1.25C0 0.918479 0.131696 0.600537 0.366116 0.366117C0.600537 0.131696 0.918479 0 1.25 0H21.25C21.5815 0 21.8995 0.131696 22.1339 0.366117C22.3683 0.600537 22.5 0.918479 22.5 1.25C22.5 1.58152 22.3683 1.89946 22.1339 2.13388C21.8995 2.3683 21.5815 2.5 21.25 2.5H1.25C0.918479 2.5 0.600537 2.3683 0.366116 2.13388C0.131696 1.89946 0 1.58152 0 1.25ZM2.5 6.875C2.5 6.54348 2.6317 6.22554 2.86612 5.99112C3.10054 5.7567 3.41848 5.625 3.75 5.625H18.75C19.0815 5.625 19.3995 5.7567 19.6339 5.99112C19.8683 6.22554 20 6.54348 20 6.875C20 7.20652 19.8683 7.52446 19.6339 7.75888C19.3995 7.9933 19.0815 8.125 18.75 8.125H3.75C3.41848 8.125 3.10054 7.9933 2.86612 7.75888C2.6317 7.52446 2.5 7.20652 2.5 6.875ZM6.25 12.5C6.25 12.1685 6.3817 11.8505 6.61612 11.6161C6.85054 11.3817 7.16848 11.25 7.5 11.25H15C15.3315 11.25 15.6495 11.3817 15.8839 11.6161C16.1183 11.8505 16.25 12.1685 16.25 12.5C16.25 12.8315 16.1183 13.1495 15.8839 13.3839C15.6495 13.6183 15.3315 13.75 15 13.75H7.5C7.16848 13.75 6.85054 13.6183 6.61612 13.3839C6.3817 13.1495 6.25 12.8315 6.25 12.5Z" fill="#8FB5E9"/>
</svg>
